<svg id="Layer_1" data-name="Layer 1" xmlns="http://www.w3.org/2000/svg" viewBox="0 0 326.24 330.27"><defs><style>.cls-1{fill:#ffce00;}</style></defs><title>Castle</title><path class="cls-1" d="M150,330.27,117.6,299.62l34.81-36.36-11.8-2.18-31,30.71L81.28,259.23l18.43-19.75-9.05-6.79L71.87,251.48,40.38,218.19l29.7-29.69L67.3,176.3,29.14,213.69l-29-32.58L138.33,43.23l.29-.16,73-40.7L164.36,79.65l13.36,2.43,71-41.7L217.37,99.46,230.1,112.2l59-33.08-41.51,74.19,3.66,12.2,74.81-43L288,192.33l-.25.25Zm-25.6-30.82L150,323.54,284.08,189.41l29.54-54.16-65.25,37.5-6-20,34.15-61L229.28,118.2l-17.85-17.85,25-47.17-57.82,34-22.06-4,41.31-67.6L141.27,47.12,6.82,181.31l22.56,25.38L70.1,166.8,75.38,190,47.12,218.28,72,244.56l18.24-18.24,16.71,12.53-19.13,20.5,22.1,25.39L139,255.88l23.08,4.26Z"/><polygon class="cls-1" points="152.41 148.21 126.66 148.21 101.7 221.46 216.01 221.46 178.98 101.52 145.17 101.52 175.76 196.5 141.95 196.5 152.41 148.21"/><rect class="cls-1" x="55.84" y="138.08" width="87.84" height="4.83" transform="translate(-70.12 111.69) rotate(-45)"/><rect class="cls-1" x="64.22" y="166.32" width="58.06" height="4.83" transform="translate(-92 115.36) rotate(-45)"/><rect class="cls-1" x="188.16" y="108.36" width="30.74" height="4.83" transform="translate(-18.72 176.36) rotate(-45)"/><rect class="cls-1" x="198.64" y="125.65" width="36.38" height="4.83" transform="translate(-27.05 190.83) rotate(-45)"/><rect class="cls-1" x="210.01" y="165.11" width="40.97" height="4.83" transform="translate(-50.94 212.05) rotate(-45)"/><rect class="cls-1" x="220.26" y="178.96" width="34.63" height="4.83" transform="translate(-58.67 221.11) rotate(-45)"/><rect class="cls-1" x="151.83" y="246.21" width="37" height="4.83" transform="translate(-125.92 193.26) rotate(-45)"/><rect class="cls-1" x="135.16" y="244.87" width="31.69" height="4.83" transform="translate(-130.63 179.2) rotate(-45)"/><rect class="cls-1" x="124.05" y="126.61" width="17.83" height="4.83" transform="translate(-52.29 131.81) rotate(-45)"/></svg>