<svg id="Layer_1" data-name="Layer 1" xmlns="http://www.w3.org/2000/svg" viewBox="0 0 326.24 330.27"><defs><style>.cls-1{fill:#ffce00;}</style></defs><title>Plus</title><path class="cls-1" d="M238.79,328.79H87.59V237.51H0V91.84H87.59V1.48H236v92.2h90.22V237.51H238.79ZM93.12,323.26H233.26V232h87.45V99.21H230.5V7H93.12V97.37H5.53V232H93.12Z"/><path class="cls-1" d="M97.73,225.53h33.19V136.09h67.3v89.43h34.11V136.09s-4.3-32.27-28.58-32.27h-106Z"/><path class="cls-1" d="M150.9,149.92c.31,1.84,31.65,0,31.65,0v75.6H150.9Z"/><polygon class="cls-1" points="182.55 88.76 177.02 88.76 177.02 41.13 148.75 41.13 148.75 88.76 143.21 88.76 143.21 35.6 182.55 35.6 182.55 88.76"/><polygon class="cls-1" points="182.79 294.37 143.45 294.37 143.45 241.2 148.99 241.2 148.99 288.83 177.26 288.83 177.26 241.2 182.79 241.2 182.79 294.37"/><polygon class="cls-1" points="291.04 184.81 245.25 184.81 245.25 179.27 285.51 179.27 285.51 151 245.25 151 245.25 145.47 291.04 145.47 291.04 184.81"/><polygon class="cls-1" points="81.44 184.81 35.65 184.81 35.65 145.47 81.44 145.47 81.44 151 41.18 151 41.18 179.27 81.44 179.27 81.44 184.81"/></svg>