<svg id="Layer_1" data-name="Layer 1" xmlns="http://www.w3.org/2000/svg" viewBox="0 0 326.24 330.27"><defs><style>.cls-1{fill:#ffce00;}</style></defs><title>Candy</title><path class="cls-1" d="M112.61,327.47,0,163.25H58.61c3.6-39.54,19-68.18,45.94-85.14,22.61-14.26,47.81-16.39,60.81-16.39,4,0,7.09.2,8.82.35L213.58,1.79,326.16,168.31H267.75c-2.4,92.88-84.39,100.16-109.65,100.16-2.7,0-4.77-.08-6.06-.15ZM9.59,168.31l103,150.14,36.93-55.4,1.49.13s2.7.23,7.13.23c24.31,0,103.72-7,104.64-97.66l0-2.5h53.88l-103-152.34-37,56.52-1.57-.2a87.1,87.1,0,0,0-9.77-.47c-28.3,0-94.89,9.67-101.91,99.2l-.18,2.33Z"/><path class="cls-1" d="M163.1,100.66H126s-7.86,20.21,25.82,53.89,11.23,43.79,11.23,43.79H120.43v31.44H163.1s55.77-2.9,42.66-56.14c-4.49-18.24-23-33-23-33S164.22,125.36,163.1,100.66Z"/><polygon class="cls-1" points="269.9 168.31 216.43 168.31 216.43 163.25 260.63 163.25 214.64 92.1 190.27 126.13 186.16 123.19 214.85 83.12 269.9 168.31"/><rect class="cls-1" x="154.1" y="72.17" width="26" height="5.05" transform="translate(2.51 154.77) rotate(-50.03)"/><polygon class="cls-1" points="109.89 246.44 56.34 163.32 140.61 162.13 140.68 167.18 65.52 168.24 114.14 243.7 109.89 246.44"/><rect class="cls-1" x="100.36" y="151.32" width="29.2" height="5.05" transform="translate(-77.03 159.03) rotate(-54.78)"/><rect class="cls-1" x="144.58" y="251.39" width="28.69" height="5.05" transform="translate(-140.29 239.84) rotate(-55.26)"/></svg>